<svg viewBox="0 0 120 100">
    <g id="Page-1" stroke="none" stroke-width="1" fill="none" fill-rule="evenodd">
        <g id="Group" fill="#FFFFFF">
            <path d="M2.008,53.543 C1.605,53.543 1.205,53.695 0.898,54 C0.589,54.313 0.439,54.711 0.439,55.112 L0.439,56.302 L17.236,56.302 L17.236,55.112 C17.236,54.711 17.082,54.312 16.773,54 C16.47,53.695 16.066,53.543 15.669,53.543 L2.008,53.543 L2.008,53.543 Z" id="Shape"></path>
            <path d="M22.513,34.148 C22.115,34.148 21.712,34.3 21.407,34.605 C21.1,34.914 20.949,35.316 20.949,35.717 L20.949,56.302 L37.741,56.302 L37.741,35.717 C37.741,35.316 37.591,34.913 37.283,34.605 C36.974,34.3 36.576,34.148 36.173,34.148 L22.513,34.148 L22.513,34.148 Z" id="Shape"></path>
            <path d="M43.022,26.174 C42.62,26.174 42.22,26.324 41.912,26.63 C41.605,26.939 41.454,27.34 41.454,27.742 L41.454,56.304 L58.25,56.304 L58.25,27.742 C58.25,27.34 58.097,26.939 57.791,26.63 C57.49,26.325 57.084,26.174 56.683,26.174 L43.022,26.174 L43.022,26.174 Z" id="Shape"></path>
            <path d="M63.532,29.474 C63.129,29.474 62.728,29.622 62.424,29.931 C62.115,30.24 61.963,30.638 61.963,31.043 L61.963,56.303 L78.76,56.303 L78.76,31.043 C78.76,30.638 78.61,30.239 78.297,29.931 C77.994,29.622 77.594,29.474 77.193,29.474 L63.532,29.474 L63.532,29.474 Z" id="Shape"></path>
            <path d="M84.039,16.657 C83.634,16.657 83.233,16.811 82.927,17.115 C82.622,17.424 82.466,17.823 82.466,18.225 L82.466,56.304 L99.269,56.304 L99.269,18.224 C99.269,17.823 99.113,17.423 98.804,17.114 C98.502,16.811 98.101,16.656 97.698,16.656 L84.039,16.656 L84.039,16.657 Z" id="Shape"></path>
            <path d="M104.546,0.659 C104.144,0.659 103.744,0.811 103.436,1.118 C103.133,1.423 102.979,1.826 102.979,2.226 L102.979,56.302 L119.774,56.302 L119.774,2.227 C119.774,1.827 119.624,1.423 119.314,1.119 C119.009,0.812 118.606,0.66 118.207,0.66 L104.546,0.66 L104.546,0.659 Z" id="Shape"></path>
        </g>
    </g>
</svg>
